<mxfile host="app.diagrams.net" agent="Mozilla/5.0 (Macintosh; Intel Mac OS X 10_15_7) AppleWebKit/605.1.15 (KHTML, like Gecko) Version/18.0 Safari/605.1.15" version="24.7.15">
  <diagram name="Pagina-1" id="rWyAsOyRDnSM5llrMw0e">
    <mxGraphModel dx="1026" dy="692" grid="1" gridSize="10" guides="1" tooltips="1" connect="1" arrows="1" fold="1" page="1" pageScale="1" pageWidth="827" pageHeight="1169" math="0" shadow="0">
      <root>
        <mxCell id="0" />
        <mxCell id="1" parent="0" />
        <mxCell id="eZCDKwDGGfWPiBwi9F2F-8" style="rounded=0;orthogonalLoop=1;jettySize=auto;html=1;exitX=0;exitY=1;exitDx=0;exitDy=0;entryX=1;entryY=0.5;entryDx=0;entryDy=0;" edge="1" parent="1" source="eZCDKwDGGfWPiBwi9F2F-1" target="eZCDKwDGGfWPiBwi9F2F-4">
          <mxGeometry relative="1" as="geometry" />
        </mxCell>
        <mxCell id="eZCDKwDGGfWPiBwi9F2F-9" style="edgeStyle=orthogonalEdgeStyle;rounded=0;orthogonalLoop=1;jettySize=auto;html=1;exitX=1;exitY=0.5;exitDx=0;exitDy=0;entryX=0;entryY=0.5;entryDx=0;entryDy=0;" edge="1" parent="1" source="eZCDKwDGGfWPiBwi9F2F-1" target="eZCDKwDGGfWPiBwi9F2F-5">
          <mxGeometry relative="1" as="geometry" />
        </mxCell>
        <mxCell id="eZCDKwDGGfWPiBwi9F2F-1" value="Libri" style="rounded=1;whiteSpace=wrap;html=1;" vertex="1" parent="1">
          <mxGeometry x="160" y="140" width="120" height="60" as="geometry" />
        </mxCell>
        <mxCell id="eZCDKwDGGfWPiBwi9F2F-2" value="id_libro*" style="ellipse;whiteSpace=wrap;html=1;" vertex="1" parent="1">
          <mxGeometry x="50" y="95" width="60" height="50" as="geometry" />
        </mxCell>
        <mxCell id="eZCDKwDGGfWPiBwi9F2F-4" value="autore" style="ellipse;whiteSpace=wrap;html=1;" vertex="1" parent="1">
          <mxGeometry x="50" y="195" width="70" height="50" as="geometry" />
        </mxCell>
        <mxCell id="eZCDKwDGGfWPiBwi9F2F-5" value="genere&amp;nbsp;" style="ellipse;whiteSpace=wrap;html=1;" vertex="1" parent="1">
          <mxGeometry x="310" y="145" width="50" height="50" as="geometry" />
        </mxCell>
        <mxCell id="eZCDKwDGGfWPiBwi9F2F-6" style="rounded=0;orthogonalLoop=1;jettySize=auto;html=1;exitX=0;exitY=0;exitDx=0;exitDy=0;entryX=1.022;entryY=0.589;entryDx=0;entryDy=0;entryPerimeter=0;" edge="1" parent="1" source="eZCDKwDGGfWPiBwi9F2F-1" target="eZCDKwDGGfWPiBwi9F2F-2">
          <mxGeometry relative="1" as="geometry" />
        </mxCell>
        <mxCell id="eZCDKwDGGfWPiBwi9F2F-16" style="rounded=0;orthogonalLoop=1;jettySize=auto;html=1;exitX=0;exitY=0;exitDx=0;exitDy=0;entryX=1;entryY=0.5;entryDx=0;entryDy=0;" edge="1" parent="1" source="eZCDKwDGGfWPiBwi9F2F-10" target="eZCDKwDGGfWPiBwi9F2F-15">
          <mxGeometry relative="1" as="geometry" />
        </mxCell>
        <mxCell id="eZCDKwDGGfWPiBwi9F2F-18" style="edgeStyle=orthogonalEdgeStyle;rounded=0;orthogonalLoop=1;jettySize=auto;html=1;exitX=1;exitY=0.5;exitDx=0;exitDy=0;" edge="1" parent="1" source="eZCDKwDGGfWPiBwi9F2F-10" target="eZCDKwDGGfWPiBwi9F2F-13">
          <mxGeometry relative="1" as="geometry" />
        </mxCell>
        <mxCell id="eZCDKwDGGfWPiBwi9F2F-10" value="Autori" style="rounded=1;whiteSpace=wrap;html=1;" vertex="1" parent="1">
          <mxGeometry x="570" y="140" width="120" height="60" as="geometry" />
        </mxCell>
        <mxCell id="eZCDKwDGGfWPiBwi9F2F-13" value="cognome" style="ellipse;whiteSpace=wrap;html=1;" vertex="1" parent="1">
          <mxGeometry x="740" y="145" width="50" height="50" as="geometry" />
        </mxCell>
        <mxCell id="eZCDKwDGGfWPiBwi9F2F-14" value="nome&amp;nbsp;" style="ellipse;whiteSpace=wrap;html=1;" vertex="1" parent="1">
          <mxGeometry x="490" y="160" width="50" height="50" as="geometry" />
        </mxCell>
        <mxCell id="eZCDKwDGGfWPiBwi9F2F-15" value="id_autore" style="ellipse;whiteSpace=wrap;html=1;" vertex="1" parent="1">
          <mxGeometry x="480" y="90" width="50" height="50" as="geometry" />
        </mxCell>
        <mxCell id="eZCDKwDGGfWPiBwi9F2F-17" style="rounded=0;orthogonalLoop=1;jettySize=auto;html=1;exitX=-0.012;exitY=0.889;exitDx=0;exitDy=0;entryX=1.047;entryY=0.591;entryDx=0;entryDy=0;entryPerimeter=0;exitPerimeter=0;" edge="1" parent="1" source="eZCDKwDGGfWPiBwi9F2F-10" target="eZCDKwDGGfWPiBwi9F2F-14">
          <mxGeometry relative="1" as="geometry" />
        </mxCell>
        <mxCell id="eZCDKwDGGfWPiBwi9F2F-23" style="rounded=0;orthogonalLoop=1;jettySize=auto;html=1;exitX=0;exitY=0;exitDx=0;exitDy=0;entryX=1;entryY=0.5;entryDx=0;entryDy=0;" edge="1" parent="1" source="eZCDKwDGGfWPiBwi9F2F-20" target="eZCDKwDGGfWPiBwi9F2F-22">
          <mxGeometry relative="1" as="geometry" />
        </mxCell>
        <mxCell id="eZCDKwDGGfWPiBwi9F2F-26" style="rounded=0;orthogonalLoop=1;jettySize=auto;html=1;exitX=0;exitY=1;exitDx=0;exitDy=0;entryX=1;entryY=0.5;entryDx=0;entryDy=0;" edge="1" parent="1" source="eZCDKwDGGfWPiBwi9F2F-20" target="eZCDKwDGGfWPiBwi9F2F-24">
          <mxGeometry relative="1" as="geometry" />
        </mxCell>
        <mxCell id="eZCDKwDGGfWPiBwi9F2F-20" value="Amici" style="rounded=1;whiteSpace=wrap;html=1;" vertex="1" parent="1">
          <mxGeometry x="180" y="350" width="120" height="60" as="geometry" />
        </mxCell>
        <mxCell id="eZCDKwDGGfWPiBwi9F2F-22" value="id_amico" style="ellipse;whiteSpace=wrap;html=1;align=center;" vertex="1" parent="1">
          <mxGeometry x="60" y="300" width="100" height="40" as="geometry" />
        </mxCell>
        <mxCell id="eZCDKwDGGfWPiBwi9F2F-24" value="nome" style="ellipse;whiteSpace=wrap;html=1;align=center;" vertex="1" parent="1">
          <mxGeometry x="60" y="410" width="100" height="40" as="geometry" />
        </mxCell>
        <mxCell id="eZCDKwDGGfWPiBwi9F2F-29" value="data" style="ellipse;whiteSpace=wrap;html=1;align=center;" vertex="1" parent="1">
          <mxGeometry x="160" y="230" width="100" height="40" as="geometry" />
        </mxCell>
        <mxCell id="eZCDKwDGGfWPiBwi9F2F-30" style="edgeStyle=orthogonalEdgeStyle;rounded=0;orthogonalLoop=1;jettySize=auto;html=1;exitX=0.5;exitY=1;exitDx=0;exitDy=0;entryX=0.548;entryY=-0.003;entryDx=0;entryDy=0;entryPerimeter=0;" edge="1" parent="1" source="eZCDKwDGGfWPiBwi9F2F-1" target="eZCDKwDGGfWPiBwi9F2F-29">
          <mxGeometry relative="1" as="geometry" />
        </mxCell>
        <mxCell id="eZCDKwDGGfWPiBwi9F2F-38" style="edgeStyle=orthogonalEdgeStyle;rounded=0;orthogonalLoop=1;jettySize=auto;html=1;exitX=1;exitY=0.5;exitDx=0;exitDy=0;entryX=0;entryY=0.5;entryDx=0;entryDy=0;shape=link;width=0;" edge="1" parent="1" source="eZCDKwDGGfWPiBwi9F2F-31" target="eZCDKwDGGfWPiBwi9F2F-37">
          <mxGeometry relative="1" as="geometry" />
        </mxCell>
        <mxCell id="eZCDKwDGGfWPiBwi9F2F-31" value="Libri" style="rounded=1;whiteSpace=wrap;html=1;" vertex="1" parent="1">
          <mxGeometry x="200" y="510" width="120" height="60" as="geometry" />
        </mxCell>
        <mxCell id="eZCDKwDGGfWPiBwi9F2F-32" value="Autori" style="rounded=1;whiteSpace=wrap;html=1;" vertex="1" parent="1">
          <mxGeometry x="480" y="510" width="120" height="60" as="geometry" />
        </mxCell>
        <mxCell id="eZCDKwDGGfWPiBwi9F2F-34" value="N" style="text;html=1;align=center;verticalAlign=middle;resizable=0;points=[];autosize=1;strokeColor=none;fillColor=none;" vertex="1" parent="1">
          <mxGeometry x="330" y="510" width="30" height="30" as="geometry" />
        </mxCell>
        <mxCell id="eZCDKwDGGfWPiBwi9F2F-35" value="N" style="text;html=1;align=center;verticalAlign=middle;resizable=0;points=[];autosize=1;strokeColor=none;fillColor=none;" vertex="1" parent="1">
          <mxGeometry x="440" y="510" width="30" height="30" as="geometry" />
        </mxCell>
        <mxCell id="eZCDKwDGGfWPiBwi9F2F-40" style="edgeStyle=orthogonalEdgeStyle;rounded=0;orthogonalLoop=1;jettySize=auto;html=1;exitX=1;exitY=0.5;exitDx=0;exitDy=0;entryX=0;entryY=0.5;entryDx=0;entryDy=0;shape=link;width=0.5555555555555554;" edge="1" parent="1" source="eZCDKwDGGfWPiBwi9F2F-37" target="eZCDKwDGGfWPiBwi9F2F-32">
          <mxGeometry relative="1" as="geometry" />
        </mxCell>
        <mxCell id="eZCDKwDGGfWPiBwi9F2F-37" value="scrive" style="rhombus;whiteSpace=wrap;html=1;" vertex="1" parent="1">
          <mxGeometry x="360" y="500" width="80" height="80" as="geometry" />
        </mxCell>
        <mxCell id="eZCDKwDGGfWPiBwi9F2F-41" style="rounded=0;orthogonalLoop=1;jettySize=auto;html=1;exitX=0;exitY=0;exitDx=0;exitDy=0;entryX=1;entryY=0.5;entryDx=0;entryDy=0;" edge="1" parent="1" source="eZCDKwDGGfWPiBwi9F2F-43" target="eZCDKwDGGfWPiBwi9F2F-46">
          <mxGeometry relative="1" as="geometry" />
        </mxCell>
        <mxCell id="eZCDKwDGGfWPiBwi9F2F-42" style="edgeStyle=orthogonalEdgeStyle;rounded=0;orthogonalLoop=1;jettySize=auto;html=1;exitX=1;exitY=0.5;exitDx=0;exitDy=0;" edge="1" parent="1" source="eZCDKwDGGfWPiBwi9F2F-43" target="eZCDKwDGGfWPiBwi9F2F-44">
          <mxGeometry relative="1" as="geometry" />
        </mxCell>
        <mxCell id="eZCDKwDGGfWPiBwi9F2F-43" value="Proprietario" style="rounded=1;whiteSpace=wrap;html=1;" vertex="1" parent="1">
          <mxGeometry x="580" y="330" width="120" height="60" as="geometry" />
        </mxCell>
        <mxCell id="eZCDKwDGGfWPiBwi9F2F-44" value="cognome" style="ellipse;whiteSpace=wrap;html=1;" vertex="1" parent="1">
          <mxGeometry x="750" y="335" width="50" height="50" as="geometry" />
        </mxCell>
        <mxCell id="eZCDKwDGGfWPiBwi9F2F-45" value="nome&amp;nbsp;" style="ellipse;whiteSpace=wrap;html=1;" vertex="1" parent="1">
          <mxGeometry x="500" y="350" width="50" height="50" as="geometry" />
        </mxCell>
        <mxCell id="eZCDKwDGGfWPiBwi9F2F-46" value="id_propritario" style="ellipse;whiteSpace=wrap;html=1;" vertex="1" parent="1">
          <mxGeometry x="490" y="280" width="50" height="50" as="geometry" />
        </mxCell>
        <mxCell id="eZCDKwDGGfWPiBwi9F2F-47" style="rounded=0;orthogonalLoop=1;jettySize=auto;html=1;exitX=-0.012;exitY=0.889;exitDx=0;exitDy=0;entryX=1.047;entryY=0.591;entryDx=0;entryDy=0;entryPerimeter=0;exitPerimeter=0;" edge="1" parent="1" source="eZCDKwDGGfWPiBwi9F2F-43" target="eZCDKwDGGfWPiBwi9F2F-45">
          <mxGeometry relative="1" as="geometry" />
        </mxCell>
        <mxCell id="eZCDKwDGGfWPiBwi9F2F-48" value="prop" style="rounded=1;whiteSpace=wrap;html=1;" vertex="1" parent="1">
          <mxGeometry x="520" y="632" width="120" height="60" as="geometry" />
        </mxCell>
        <mxCell id="eZCDKwDGGfWPiBwi9F2F-55" style="edgeStyle=orthogonalEdgeStyle;rounded=0;orthogonalLoop=1;jettySize=auto;html=1;exitX=1;exitY=0.5;exitDx=0;exitDy=0;entryX=0;entryY=0.5;entryDx=0;entryDy=0;shape=link;width=0.8571428571428577;" edge="1" parent="1" source="eZCDKwDGGfWPiBwi9F2F-49" target="eZCDKwDGGfWPiBwi9F2F-52">
          <mxGeometry relative="1" as="geometry" />
        </mxCell>
        <mxCell id="eZCDKwDGGfWPiBwi9F2F-57" style="edgeStyle=orthogonalEdgeStyle;rounded=0;orthogonalLoop=1;jettySize=auto;html=1;exitX=0.5;exitY=0;exitDx=0;exitDy=0;entryX=0.5;entryY=1;entryDx=0;entryDy=0;" edge="1" parent="1" source="eZCDKwDGGfWPiBwi9F2F-49" target="eZCDKwDGGfWPiBwi9F2F-31">
          <mxGeometry relative="1" as="geometry" />
        </mxCell>
        <mxCell id="eZCDKwDGGfWPiBwi9F2F-49" value="Amici" style="rounded=1;whiteSpace=wrap;html=1;" vertex="1" parent="1">
          <mxGeometry x="200" y="632" width="120" height="60" as="geometry" />
        </mxCell>
        <mxCell id="eZCDKwDGGfWPiBwi9F2F-54" style="edgeStyle=orthogonalEdgeStyle;rounded=0;orthogonalLoop=1;jettySize=auto;html=1;exitX=1;exitY=0.5;exitDx=0;exitDy=0;entryX=0;entryY=0.5;entryDx=0;entryDy=0;shape=link;width=-0.2857142857142865;" edge="1" parent="1" source="eZCDKwDGGfWPiBwi9F2F-52" target="eZCDKwDGGfWPiBwi9F2F-48">
          <mxGeometry relative="1" as="geometry" />
        </mxCell>
        <mxCell id="eZCDKwDGGfWPiBwi9F2F-52" value="" style="shape=rhombus;perimeter=rhombusPerimeter;whiteSpace=wrap;html=1;align=center;" vertex="1" parent="1">
          <mxGeometry x="354" y="632" width="120" height="60" as="geometry" />
        </mxCell>
        <mxCell id="eZCDKwDGGfWPiBwi9F2F-56" value="N" style="text;html=1;align=center;verticalAlign=middle;resizable=0;points=[];autosize=1;strokeColor=none;fillColor=none;" vertex="1" parent="1">
          <mxGeometry x="325" y="620" width="30" height="30" as="geometry" />
        </mxCell>
        <mxCell id="eZCDKwDGGfWPiBwi9F2F-58" value="1" style="text;html=1;align=center;verticalAlign=middle;resizable=0;points=[];autosize=1;strokeColor=none;fillColor=none;" vertex="1" parent="1">
          <mxGeometry x="235" y="608" width="30" height="30" as="geometry" />
        </mxCell>
        <mxCell id="eZCDKwDGGfWPiBwi9F2F-59" value="N" style="text;html=1;align=center;verticalAlign=middle;resizable=0;points=[];autosize=1;strokeColor=none;fillColor=none;" vertex="1" parent="1">
          <mxGeometry x="225" y="568" width="30" height="30" as="geometry" />
        </mxCell>
        <mxCell id="eZCDKwDGGfWPiBwi9F2F-60" value="1" style="text;html=1;align=center;verticalAlign=middle;resizable=0;points=[];autosize=1;strokeColor=none;fillColor=none;" vertex="1" parent="1">
          <mxGeometry x="475" y="638" width="30" height="30" as="geometry" />
        </mxCell>
      </root>
    </mxGraphModel>
  </diagram>
</mxfile>
